<?xml version="1.0" encoding="UTF-8"?>
<svg width="1e3" height="175.09" version="1.1" viewBox="0 0 264.58 46.327" xmlns="http://www.w3.org/2000/svg">
 <g transform="translate(-37.257 -73.71)">
  <path d="m75.402 109.76c-.69952 1.616-1.5275 3.1036-2.4868 4.4712-1.3077 1.8644-2.3784 3.155-3.2035 3.8716-1.2791 1.1763-2.6496 1.7787-4.1171 1.813-1.0536 0-2.3241-.29979-3.8031-.90794-1.4838-.60529-2.8475-.90508-4.0943-.90508-1.3077 0-2.7101.29979-4.2102.90508-1.5024.60815-2.7127.92507-3.6381.95648-1.4073.0598-2.8101-.55961-4.2102-1.8616-.89366-.77945-2.0115-2.1157-3.3505-4.0087-1.4367-2.0214-2.6179-4.3655-3.5433-7.038-.99103-2.8866-1.4878-5.6818-1.4878-8.3879 0-3.0999.66982-5.7734 2.0115-8.0139 1.0544-1.7996 2.4572-3.2192 4.2128-4.2613 1.7556-1.0421 3.6526-1.5732 5.6955-1.6072 1.1178 0 2.5836.34576 4.4052 1.0253 1.8165.68182 2.9828 1.0276 3.4942 1.0276.38231 0 1.678-.4043 3.8745-1.2103 2.0771-.74749 3.8302-1.057 5.2664-.93507 3.8916.31408 6.8153 1.8481 8.7596 4.6119-3.4804 2.1088-5.2021 5.0625-5.1678 8.8516.03141 2.9514 1.1021 5.4074 3.2064 7.3575.95362.90508 2.0186 1.6046 3.2035 2.1014-.25696.74522-.5282 1.459-.81657 2.1442zm-8.9252-35.121c0 2.3133-.84513 4.4732-2.5297 6.4724-2.0329 2.3766-4.4917 3.7499-7.1582 3.5333-.03395-.27753-.05367-.56961-.05367-.87653 0-2.2208.96676-4.5974 2.6836-6.5406.85712-.98388 1.9472-1.802 3.2692-2.4546 1.3191-.64286 2.5668-.99839 3.7403-1.0593.03428.30926.04851.61853.04851.92532z" stroke-width=".038962"/>
  <g transform="matrix(1.4904 0 0 1.4904 -1772.1 -304.45)" aria-label="Gift Card">
   <path d="m1269.5 272.63q0 5.7227-3.2227 8.9648-3.2031 3.2227-8.9257 3.2227-6.0547 0-9.6094-3.9453-3.5352-3.9648-3.5352-10.742 0-6.6602 3.5156-10.547 3.5352-3.8867 9.5704-3.8867 4.707 0 7.9687 2.5586 3.2813 2.5586 4.0234 6.7773h-4.4921q-.7813-2.6172-2.7539-4.0625-1.9727-1.4453-4.7266-1.4453-4.043 0-6.3477 2.8125-2.2851 2.793-2.2851 7.7539 0 5.0586 2.3437 7.9883 2.3438 2.9102 6.3672 2.9102 3.418 0 5.586-1.9922 2.1679-2.0117 2.207-5.2148v-.48828h-7.2852v-3.5352h11.602z"/>
   <path d="m1273.4 284.35v-20.547h4.2188v20.547zm3.8477-24.258q-.7227.70312-1.7383.70312t-1.7383-.70312q-.7031-.70313-.7031-1.6992 0-1.0156.7031-1.7188.7227-.70313 1.7383-.70313 1.0351 0 1.7383.70313.7226.70312.7226 1.7188 0 .99609-.7226 1.6992z"/>
   <path d="m1283.3 284.35v-17.207h-2.832v-3.3398h2.832v-2.4143c0-1.9401.4688-3.3464 1.4063-4.2188.9375-.8724 2.4609-1.3086 4.5703-1.3086.7291 0 1.4388.0586 2.1289.17578v3.1836c-.5078-.0911-1.0156-.13672-1.5234-.13672-.8333 0-1.4388.19531-1.8164.58594-.3777.3776-.573.99609-.586 1.8555v2.2776h3.9453v3.3398h-3.8867v17.207z"/>
   <path d="m1296.3 258.94h4.2383v4.8633h3.9062v3.3398h-3.9062v11.328q0 1.3281.6055 1.9531.6054.625 1.8945.625.7031 0 1.3867-.0977v3.3203q-.7812.19531-2.3437.19531-3.125 0-4.4532-1.2695-1.3281-1.2891-1.3281-4.2774v-11.777h-2.9883v-3.3398h2.9883z"/>
   <path d="m1325.1 284.82q-5.9375 0-9.4336-3.9258-3.4766-3.9258-3.4766-10.645 0-6.6797 3.4961-10.605 3.4961-3.9453 9.4141-3.9453 4.8047 0 8.1054 2.7148 3.3008 2.6953 3.8477 7.0898h-4.3359q-.586-2.7148-2.6758-4.3359-2.0703-1.6406-4.9414-1.6406-3.8477 0-6.1524 2.9297-2.2851 2.9102-2.2851 7.793 0 4.9414 2.2851 7.8516 2.2852 2.8906 6.1719 2.8906 2.9297 0 4.9219-1.4258 2.0117-1.4258 2.6758-3.9844h4.3554q-.8007 4.375-3.9648 6.8164-3.1445 2.4219-8.0078 2.4219z"/>
   <path d="m1347.1 281.3q2.2461 0 3.75-1.3281 1.5039-1.3281 1.5039-3.3203v-1.582l-4.9218.3125q-2.0508.11718-3.125.89843-1.0547.76172-1.0547 2.0898 0 1.3086 1.0547 2.1289 1.0547.80079 2.7929.80079zm-1.1718 3.3398q-3.0664 0-5-1.7188-1.9141-1.7188-1.9141-4.4531 0-2.6953 2.0117-4.2383 2.0313-1.543 5.8594-1.7773l5.4687-.3125v-1.5625q0-1.7383-1.1132-2.6562-1.0938-.91797-3.1055-.91797-1.6602 0-2.793.78125-1.1133.78125-1.3672 2.1094h-3.9453q.098-2.7539 2.4024-4.5508 2.3242-1.7969 5.8203-1.7969 3.789 0 6.0351 1.8359 2.2657 1.8164 2.2657 4.8828v14.082h-4.043v-3.3789h-.098q-.8593 1.6602-2.6367 2.6758-1.7773.99609-3.8476.99609z"/>
   <path d="m1360.7 284.35v-20.547h4.0234v3.4961h.098q.4882-1.7383 1.7968-2.7148 1.3282-.9961 3.1446-.9961.7812 0 1.4453.15625v3.9453q-.625-.2539-1.8946-.2539-2.0312 0-3.2226 1.2891-1.1719 1.2695-1.1719 3.4375v12.188z"/>
   <path d="m1380.9 284.57q-3.8672 0-6.25-2.8711t-2.3828-7.6172q0-4.7461 2.3633-7.6172 2.3828-2.8711 6.2305-2.8711 2.1875 0 3.8672.95703 1.6992.95703 2.5781 2.6758h.078v-11.055h4.2383v28.184h-4.1016v-3.4961h-.078q-.918 1.7773-2.6172 2.7539-1.6992.95703-3.9258.95703zm1.1133-17.383q-2.4609 0-3.9453 1.8945-1.4844 1.875-1.4844 5 0 3.1641 1.4844 5.0391t3.9453 1.875q2.4414 0 3.9258-1.8945 1.4844-1.8945 1.4844-5.0195 0-3.1055-1.4844-5t-3.9258-1.8945z"/>
  </g>
 </g>
</svg>
