<?xml version="1.0" encoding="utf-8"?>
<!-- Generator: Adobe Illustrator 23.0.2, SVG Export Plug-In . SVG Version: 6.00 Build 0)  -->
<svg version="1.1"
	 id="svg2" xmlns:cc="http://creativecommons.org/ns#" xmlns:dc="http://purl.org/dc/elements/1.1/" xmlns:inkscape="http://www.inkscape.org/namespaces/inkscape" xmlns:rdf="http://www.w3.org/1999/02/22-rdf-syntax-ns#" xmlns:sodipodi="http://sodipodi.sourceforge.net/DTD/sodipodi-0.dtd" xmlns:svg="http://www.w3.org/2000/svg"
	 xmlns="http://www.w3.org/2000/svg" xmlns:xlink="http://www.w3.org/1999/xlink" x="0px" y="0px" viewBox="0 0 2060 596.6"
	 style="enable-background:new 0 0 2060 596.6;" xml:space="preserve">
<g>
	<path d="M1475.4,192.6v395.1h81.1V351.1c0-56,32.3-90.9,84.5-90.9c15.7,0,30,1.9,36.4,4.5v-75.5c-6-1.1-16.2-3-27.8-3
		c-46.6,0-81.9,27.4-95,73.6h-1.9v-67.2H1475.4z"/>
	<path d="M1978.4,258.3h-1.5c-22.1-43.6-67.2-72.1-123.9-72.1c-99.1,0-165.2,79.2-165.2,203.9s66.1,204.3,165.9,204.3
		c57.5,0,102.5-28.9,125.8-74h1.5v67.2h78.9V45.8h-81.5V258.3z M1875.2,525.7c-64.2,0-104.4-52.2-104.4-135.6
		c0-83,40.2-135.6,104.4-135.6c62.3,0,104,53.7,104,135.6C1979.2,472.8,1937.5,525.7,1875.2,525.7z"/>
	<path d="M1215.8,358.5c-93.9,5.3-146.8,47.7-146.8,116.8c0,71,54,119.1,131.4,118.9c51.9,0,101.8-27.8,124.7-71.7h1.9v65h77.7
		V315.3c0-79.2-61.2-129.9-157-129.9c-97.7,0-158.5,52.6-163,123.9h76.6c7.2-35.3,36.5-57.8,83.4-57.8c49.5,0,79.2,26.3,79.2,70.2
		v30.4L1215.8,358.5z M1323.9,439.7c0,51.4-44.3,90.4-101,90.5c-43.6,0-72.1-22.6-72.1-57.1c0-33.8,27.4-55.2,75.8-58.6l97.3-6
		V439.7z"/>
	<path d="M803.1,110.4c73.6,0,131.4,45.4,146.4,114.9h83.4c-14.3-113-107-188.5-229.8-188.5c-151.3,0-248.2,108.1-248.2,279.7
		c0,172.7,96.1,280.1,248.2,280.1c124.7,0,209.5-65.7,230.2-177.6h-83.7c-16.9,65.3-70.6,104-146.1,104
		c-99.5,0-162.6-80-162.6-206.5C640.9,191.1,704.7,110.4,803.1,110.4z"/>
</g>
<path d="M250.6,140.3c-0.4-3.6-0.7-7.3-0.7-11.2c0-28.5,12.4-59,34.4-83.9c11-12.6,25-23.1,42-31.5c16.9-8.3,32.9-12.8,48-13.6
	c0.5,3.9,0.7,7.8,0.7,11.8c0,29.7-10.8,57.4-32.5,83.1C316.4,125.5,284.9,143.1,250.6,140.3z M153,142.2
	c-26.2,0.4-50.6,7.2-73.1,20.6c-22.6,13.4-40.6,31.6-54.1,54.7C8.6,246.2,0,280.5,0,320.3C0,355,6.4,390.9,19.2,428
	c11.9,34.3,27.1,64.4,45.5,90.3c17.2,24.2,31.5,41.4,43,51.4c17.9,16.7,35.9,24.7,54,23.9c11.9-0.4,27.4-4.5,46.7-12.3
	c19.2-7.8,37.2-11.6,54-11.6c16,0,33.5,3.8,52.5,11.6c19,7.9,35.3,11.7,48.8,11.7c18.8-0.5,36.4-8.2,52.8-23.3
	c10.6-9.2,24.3-25.8,41.1-49.7c12.3-17.6,22.9-36.7,31.9-57.4c3.7-8.8,7.2-18,10.4-27.3c-15.2-6.4-28.9-15.4-41.1-27
	c-27-25-40.7-56.5-41.1-94.4c-0.5-48.6,21.6-86.5,66.3-113.6c-24.9-35.5-62.5-55.2-112.4-59.2c-18.4-1.6-40.9,2.4-67.6,12
	c-28.2,10.3-44.8,15.5-49.7,15.5c-6.5,0-21.5-4.5-44.8-13.2C186.2,146.6,167.3,142.2,153,142.2z"/>
</svg>
