<?xml version="1.0" encoding="UTF-8" standalone="no"?>
<svg
   width="100%"
   height="100%"
   viewBox="0 0 3842 795"
   version="1.1"
   xml:space="preserve"
   style="fill-rule:evenodd;clip-rule:evenodd;stroke-linejoin:round;stroke-miterlimit:2;"
   id="svg8396"
   sodipodi:docname="Playstation_Plus_2017.svg"
   inkscape:version="1.2.1 (9c6d41e4, 2022-07-14)"
   xmlns:inkscape="http://www.inkscape.org/namespaces/inkscape"
   xmlns:sodipodi="http://sodipodi.sourceforge.net/DTD/sodipodi-0.dtd"
   xmlns="http://www.w3.org/2000/svg"
   xmlns:svg="http://www.w3.org/2000/svg"><sodipodi:namedview
   id="namedview8398"
   pagecolor="#ffffff"
   bordercolor="#000000"
   borderopacity="0.25"
   inkscape:showpageshadow="2"
   inkscape:pageopacity="0.0"
   inkscape:pagecheckerboard="0"
   inkscape:deskcolor="#d1d1d1"
   showgrid="false"
   inkscape:zoom="0.16215513"
   inkscape:cx="2972.4623"
   inkscape:cy="434.76886"
   inkscape:window-width="1390"
   inkscape:window-height="1205"
   inkscape:window-x="0"
   inkscape:window-y="25"
   inkscape:window-maximized="0"
   inkscape:current-layer="svg8396" />
    <g
   id="g10910"><path
     id="path9341"
     style="fill:#231f20;stroke-width:0.973548"
     d="M 3162.834 238.97852 L 3162.8438 548.18164 L 3197.3555 548.18164 L 3198.4082 483.5957 L 3197.4043 419.09766 L 3251.5137 417.09375 C 3299.4901 415.31215 3304.9712 414.33701 3321.541 404.5918 C 3348.4011 388.80086 3356.8532 372.3784 3358.6348 332.49023 C 3359.9394 303.35294 3359.0235 297.47499 3350.8164 282.15039 C 3343.5343 268.56551 3336.6308 262.29323 3318.9707 253.23633 C 3296.8809 241.91105 3295.022 241.64143 3229.6289 240.32422 L 3162.834 238.97852 z M 3197.541 270.58984 L 3233.2031 270.67773 C 3278.9209 270.79553 3296.2497 274.98414 3310.6777 289.41211 C 3320.4229 299.15537 3322.5545 304.71222 3323.752 323.41406 C 3325.4752 350.24989 3317.2586 369.03807 3299.248 379.43555 C 3286.3389 386.88318 3260.8217 389.09352 3197.541 389.01562 L 3197.541 270.58984 z " /><path
     id="path9335"
     style="fill:#231f20;stroke-width:0.973548"
     d="M 2704.0391 315.30078 C 2671.9705 315.60745 2650.3775 323.96078 2632.8828 342.82812 C 2613.2269 364.02419 2603.9114 416.01209 2611.2617 463.42383 C 2618.2713 508.62561 2633.7884 530.36549 2667.6387 542.42773 C 2700.4082 554.10056 2753.5548 546.37914 2774.4082 526.9082 C 2795.466 507.26202 2801.8724 488.52271 2803.5469 441.62695 C 2806.8083 350.77554 2778.3013 314.59107 2704.0391 315.30078 z M 2706.3086 347.69922 C 2726.461 347.69922 2740.9853 358.60228 2746.3008 377.75195 C 2748.4816 385.60848 2750.2732 410.64859 2750.2832 433.40039 C 2750.3124 477.73572 2743.9458 502.71706 2730.8223 509.73633 C 2720.2009 515.42184 2691.3735 514.2044 2682.0664 507.68164 C 2668.9332 498.49135 2663.8125 476.83916 2663.8125 430.58594 C 2663.8125 366.1566 2673.2761 347.69922 2706.3086 347.69922 z " /><path
     id="path9347"
     style="fill:#231f20;stroke-width:0.973548"
     d="M 2518.9883 239.74219 L 2518.9883 286.00781 L 2572.9609 286.00781 L 2572.9609 239.74219 L 2518.9883 239.74219 z M 2518.9883 312.99609 L 2518.9883 548.18164 L 2572.9609 548.18164 L 2572.9609 312.99609 L 2518.9883 312.99609 z " /><path
     style="fill:#231f20;stroke-width:0.973548"
     d="m 3390.3135,548.18102 v -316.149 h 34.6972 v 316.149 z"
     id="path9345" /><path
     style="fill:#231f20;stroke-width:0.973548"
     d="m 2842.8388,548.18102 v -236.1068 l 60.7202,1.72415 c 68.4209,1.94223 80.6681,5.30292 100.1391,27.48423 20.3472,23.17045 24.2024,43.97517 24.2024,130.48464 v 76.41378 h -53.9735 v -83.02417 c 0,-112.36691 -2.3365,-117.45856 -53.7301,-117.45856 h -27.2399 v 200.48273 z"
     id="path9339" /><path
     style="fill:#231f20;stroke-width:0.973548"
     d="m 2407.1371,539.49698 c -7.0095,-4.77039 -16.3751,-13.56153 -20.8145,-19.54885 -7.7007,-10.38775 -8.1096,-16.12195 -9.1805,-128.1968 l -1.1293,-117.30961 h 54.2947 v 38.21565 l 55.9012,2.26447 2.3754,32.76671 h -58.2766 v 78.27326 c 0,55.72589 1.3338,79.59728 4.6341,82.88788 2.541,2.54096 12.0818,4.62435 21.2039,4.62435 h 16.5795 v 34.69725 h -26.4221 c -21.0481,0 -29.0117,-1.76212 -39.1658,-8.67431 z"
     id="path9331" /><path
     style="fill:#231f20;stroke-width:0.973548"
     d="m 2175.7929,541.04492 c -7.6813,-4.07917 -17.5628,-14.39878 -23.0731,-24.09532 -9.1319,-16.06354 -9.6187,-19.92852 -9.2195,-72.87006 0.5841,-76.64744 10.6117,-102.353 46.8374,-120.10662 16.2777,-7.9753 24.9618,-9.1163 79.0034,-10.37315 l 60.7299,-1.41165 v 235.9929 h -53.9832 V 347.69829 h -25.3122 c -13.9218,0 -28.8171,1.86921 -33.0909,4.16678 -14.613,7.81759 -19.841,28.87543 -21.4473,86.43159 -1.9374,69.49186 -0.4673,72.81166 32.7209,74.39854 l 23.998,1.14879 v 34.33703 h -31.8642 c -23.5891,0 -35.3593,-1.85947 -45.2992,-7.1361 z"
     id="path9329" /><path
     style="fill:#231f20;stroke-width:0.973548"
     d="m 2046.6907,542.7681 c -14.4864,-6.39621 -23.112,-15.97592 -30.696,-34.12286 -4.8677,-11.65337 -5.9289,-33.92815 -5.9289,-124.20525 V 274.44172 h 53.9832 v 38.55347 h 57.8288 v 34.7031 h -57.8288 v 75.43049 c 0,44.62744 1.6259,78.47771 3.9819,82.88788 3.0374,5.66605 8.1388,7.45738 21.2038,7.45738 h 17.2221 v 34.70698 l -24.0953,-0.15576 c -13.2597,-0.0876 -29.3038,-2.45334 -35.6708,-5.25716 z"
     id="path9327" /><path
     style="fill:#231f20;stroke-width:0.973548"
     d="m 1801.8726,548.18102 v -34.70698 h 46.4382 c 43.8194,0 46.964,-0.51598 55.6577,-9.20003 11.118,-11.12765 15.3626,-30.92962 11.7702,-54.91784 -3.9039,-26.04241 -14.0385,-34.30783 -46.0585,-37.58869 -35.2814,-3.61186 -53.3115,-13.37655 -66.6783,-36.11863 -9.3558,-15.92725 -10.7675,-22.34293 -10.7675,-49.15931 0,-38.42886 10.1055,-59.04568 36.547,-74.5397 16.0246,-9.3889 21.4181,-10.28067 70.407,-11.62514 l 53.0487,-1.4574 v 35.57345 h -44.5107 c -41.5315,0 -45.1239,0.60554 -53.5354,9.01992 -18.77,18.77098 -15.8493,66.81752 4.6925,77.16633 5.7537,2.89144 21.457,6.36701 34.892,7.7105 46.7692,4.67303 66.9996,23.31648 74.5154,68.68381 7.8078,47.12946 -7.1361,86.35371 -39.0685,102.47567 -15.421,7.79812 -22.7908,8.68404 -72.2568,8.68404 z"
     id="path9325" /><path
     style="fill:#231f20;stroke-width:0.973548"
     d="m 1371.5936,542.66101 c -28.0577,-12.20829 -38.241,-43.95569 -35.0964,-109.4268 3.3003,-68.84931 13.2305,-91.7569 47.071,-108.65574 17.6115,-8.79406 24.5042,-9.74132 79.9964,-11.00694 l 60.7202,0.0915 V 548.181 h -53.9735 V 347.69829 h -26.7725 c -46.0781,0 -54.1975,15.53782 -54.1975,103.76074 0,57.50748 2.541,62.01501 34.9212,62.01501 h 22.9173 v 34.70698 l -31.8155,-0.15576 c -17.8938,-0.0876 -37.0338,-2.43387 -43.7707,-5.36425 z"
     id="path9323" /><path
     style="fill:#231f20;stroke-width:0.973548"
     d="m 1242.8418,548.18102 v -308.4385 h 53.9735 v 308.4385 z"
     id="path9321" /><path
     style="fill:#231f20;stroke-width:0.973548"
     d="m 1007.658,548.18102 v -308.4385 l 70.3622,0.0876 c 79.4804,0.10125 94.0642,3.67709 111.7243,27.44724 14.1165,18.99781 18.4001,35.43033 18.3611,70.39239 -0.049,38.21273 -10.7966,64.86847 -32.974,81.79847 -13.3668,10.21252 -17.6505,11.22501 -52.4645,12.44195 l -37.9003,1.32402 v -31.56242 h 17.4752 c 26.0132,0 42.5636,-8.27516 47.4508,-23.72537 11.3321,-35.80515 7.876,-77.9296 -7.7689,-94.58116 -7.5937,-8.08824 -11.741,-8.92159 -44.3354,-8.92159 h -35.9541 V 548.181 Z"
     id="path9319" /><path
     style="fill:#231f20;stroke-width:0.973548"
     d="m 3706.4537,544.9099 c -11.6631,-3.6508 -18.9257,-7.51579 -20.5321,-9.46288 l 8.9566,-24.475 c 0.9444,-0.10709 2.0153,0.10709 3.2614,0.59386 21.0773,8.21675 54.6842,14.07751 71.4974,12.46142 14.7492,-1.41165 21.3402,-4.27388 28.155,-12.19856 19.7728,-22.98547 5.335,-45.32839 -41.7457,-64.57544 -53.5062,-21.88536 -73.1914,-46.52586 -65.1888,-81.62226 8.8982,-38.97599 59.6298,-58.50537 117.2736,-45.13271 12.9968,3.01702 17.1442,6.52082 21.3888,9.45607 l -7.8468,24.55872 -18.0885,-5.58816 c -10.6117,-3.28086 -27.5125,-4.97483 -40.8403,-4.08891 -19.2276,1.27535 -24.2122,3.20298 -32.1661,12.45168 -7.2432,8.41146 -8.8787,13.62967 -7.0874,22.58632 3.5243,17.61148 11.5268,24.02716 49.7094,39.85705 55.0931,22.8297 73.6197,46.27274 66.5128,84.16323 -3.2419,17.27074 -24.4945,38.76668 -43.5468,44.06278 -21.6031,5.99705 -65.6464,4.49779 -89.7125,-3.04721 z"
     id="path9317" /><path
     style="fill:#231f20;stroke-width:0.973548"
     d="m 3505.6692,543.07963 c -12.6659,-6.70774 -19.4515,-14.27221 -28.4568,-28.84622 -5.0625,-8.19728 -9.7452,-24.10505 -9.7939,-38.41621 V 320.70667 h 34.1618 l 1.2267,83.85655 c 1.0709,72.22753 2.2099,85.63329 8.2362,96.68306 13.2792,24.3387 53.5548,30.88094 78.9158,12.82162 22.7907,-16.22904 25.7698,-28.88517 27.0743,-115.28755 l 1.1878,-78.07368 h 34.2591 v 227.47435 h -34.6972 v -31.88369 l -7.73,9.81336 c -20.3179,25.83797 -71.7894,34.20074 -104.3838,16.96894 z"
     id="path9315" /><path
     style="fill:#231f20;stroke-width:0.973548"
     d="m 1589.8241,657.89988 c 0,-1.14878 9.5115,-26.79204 21.1454,-56.9915 l 21.1358,-54.9081 -38.4941,-112.9121 c -21.165,-62.10263 -39.049,-118.3737 -39.049,-118.3737 l 55.8524,0.20834 24.806,74.45306 c 13.6492,40.95716 25.9256,73.3471 27.2983,71.98413 1.3727,-1.36296 14.905,-34.87249 30.0924,-74.45695 l 27.6001,-71.98024 50.9847,-0.25507 c -1.0904,2.75417 -29.5083,74.7568 -61.7327,156.39854 -32.2342,81.64173 -62.0442,157.53954 -66.2597,168.67692 l -7.6618,20.24007 h -22.8589 c -12.5685,0 -22.8589,-0.93461 -22.8589,-2.0834 z"
     id="path9313" /></g><g
   id="g10893"><path
     style="fill:url(#_Linear1)"
     d="m 721.835,492.29048 c -4.642,5.59 -11.283,9.55 -19.03,10.69 l -148.036,21.8 -8.015,-57.27 204.755,-30.16 c 8.154,-1.2 15.082,-5.52 19.745,-11.58 z"
     id="path10877" /><path
     style="fill:url(#_Linear1)"
     d="m 222.757,272.75548 -20.399,-148.26 c -1.162,-8.446 1.248,-16.559 6.075,-22.815 l 48.194,-64.945 c -4.486,6.159 -6.686,13.993 -5.566,22.136 l 28.412,206.498 z"
     id="path10875" /><path
     style="fill:url(#_Linear1)"
     d="m 519.507,759.46048 c -4.848,5.77 -11.671,9.55 -19.167,10.59 l -174.223,24.17 c -16.69,2.32 -32.101,-9.32 -34.437,-26.01 l -28.341,-202.51 -204.686,26.66 c -16.624,2.17 -31.884,-9.47 -34.188,-26.08 L 0.29,392.06048 c -1.119,-8.07 1.029,-16.24 5.968,-22.72 0.136,-0.18 0.273,-0.35 0.413,-0.53 l 47.201,-63.568 c -4.161,6.208 -5.912,13.749 -4.879,21.194 l 24.175,174.224 c 2.304,16.6 17.565,28.24 34.188,26.08 l 204.686,-26.66 28.342,202.51 c 2.335,16.68 17.746,28.33 34.436,26.01 l 174.223,-24.17 c 8.027,-1.12 15.283,-5.38 20.168,-11.85 z"
     id="path8375" /><path
     style="fill:url(#_Linear2)"
     d="m 55.629,302.87548 c 4.919,-5.997 11.947,-9.909 19.665,-10.914 l 204.179,-26.592 -28.412,-206.498 c -1.12,-8.143 1.08,-15.977 5.566,-22.136 0.108,-0.147 0.217,-0.293 0.326,-0.439 4.714,-6.236 11.807,-10.672 20.161,-11.831 l 174.223,-24.176 c 8.027,-1.113 16.168,1.01 22.629,5.902 6.461,4.892 10.712,12.152 11.817,20.181 l 28.402,206.428 204.25,-30.083 c 8.056,-1.186 16.251,0.894 22.766,5.778 6.514,4.885 10.808,12.169 11.928,20.234 l 24.175,174.221 c 1.171,8.44 -1.228,16.56 -6.05,22.82 -4.663,6.06 -11.591,10.38 -19.745,11.58 l -204.755,30.16 28.332,202.44 c 1.117,7.99 -0.97,16.09 -5.803,22.54 -0.024,0.03 -0.048,0.06 -0.072,0.09 -4.885,6.47 -12.141,10.73 -20.168,11.85 l -174.223,24.17 c -16.69,2.32 -32.101,-9.33 -34.436,-26.01 l -28.342,-202.51 -204.686,26.66 c -16.623,2.16 -31.884,-9.48 -34.188,-26.08 l -24.175,-174.224 c -1.033,-7.445 0.718,-14.986 4.879,-21.194 z"
     id="path8378" /><path
     id="path9288"
     style="fill:#c5892f"
     d="M 371.17383 43.65625 L 305.20703 213.11328 L 480.78906 188.74805 L 371.17383 43.65625 z M 378.86719 99.097656 L 431.00586 168.11328 L 347.49023 179.70312 L 378.86719 99.097656 z " /><path
     id="Symbols"
     style="fill:#c5892f"
     d="M 244.63672 310.22852 L 96.791016 330.74414 L 117.3125 478.62109 L 265.15625 458.11133 L 244.63672 310.22852 z M 221.36328 341 L 234.38281 434.83984 L 140.58398 447.84961 L 127.56445 354.01953 L 221.36328 341 z " /><path
     id="path9286"
     style="fill:#c5892f"
     d="M 647.03125 249.08789 C 642.94141 249.03092 638.79606 249.28205 634.62109 249.86133 C 612.24712 252.96633 593.25377 264.90313 580.67578 281.66211 C 568.21779 298.26009 562.05196 319.58702 565.12695 341.75 C 571.30695 386.27996 612.47972 417.42023 657.01367 411.24023 C 682.94965 407.64024 704.34281 392.17006 716.4668 371.08008 C 725.15979 355.96009 729.08686 337.9495 726.50586 319.35352 C 720.90615 278.99462 686.56634 249.63861 647.03125 249.08789 z M 646.62305 276.36914 C 672.91789 276.73534 695.75774 296.26132 699.48242 323.10352 C 703.59242 352.71949 682.88264 380.11071 653.26367 384.2207 C 623.6447 388.3307 596.26039 367.61997 592.15039 338 C 588.04039 308.37803 608.75017 280.99476 638.36914 276.88477 C 641.14592 276.49945 643.90289 276.33126 646.62305 276.36914 z " /><path
     style="fill:#c5892f"
     d="m 467.07576,593.35048 64.393,48.7 -16.973,22.44 -64.393,-48.7 -48.729,64.43 -22.3,-16.87 48.6,-64.26 -64.393,-48.7 16.972,-22.44 64.394,48.7 48.728,-64.43 22.301,16.86 z"
     id="path9290" /></g>
    <defs
   id="defs8394">
        <linearGradient
   id="_Linear1"
   x1="0"
   y1="0"
   x2="1"
   y2="0"
   gradientUnits="userSpaceOnUse"
   gradientTransform="matrix(-517.544,-386.417,386.417,-517.544,663.198,569.88048)"><stop
     offset="0"
     style="stop-color:rgb(158,110,34);stop-opacity:1"
     id="stop8384" /><stop
     offset="1"
     style="stop-color:rgb(196,136,47);stop-opacity:1"
     id="stop8386" /></linearGradient>
        <linearGradient
   id="_Linear2"
   x1="0"
   y1="0"
   x2="1"
   y2="0"
   gradientUnits="userSpaceOnUse"
   gradientTransform="matrix(-561.334,-388.918,388.918,-561.334,684.815,566.88048)"><stop
     offset="0"
     style="stop-color:rgb(255,195,15);stop-opacity:1"
     id="stop8389" /><stop
     offset="1"
     style="stop-color:rgb(255,233,79);stop-opacity:1"
     id="stop8391" /></linearGradient>
    
        
        
    
            
            
            
        
            
        
                
            
                
            </defs>
</svg>
