<?xml version="1.0" encoding="utf-8"?>
<!-- Generator: Adobe Illustrator 16.0.0, SVG Export Plug-In . SVG Version: 6.00 Build 0)  -->
<!DOCTYPE svg PUBLIC "-//W3C//DTD SVG 1.1//EN" "http://www.w3.org/Graphics/SVG/1.1/DTD/svg11.dtd">
<svg version="1.1" id="Layer_1" xmlns="http://www.w3.org/2000/svg" xmlns:xlink="http://www.w3.org/1999/xlink" x="0px" y="0px"
	 width="1000px" height="170.496px" viewBox="-202.36 335.697 1000 170.496" enable-background="new -202.36 335.697 1000 170.496"
	 xml:space="preserve">
<path d="M-117.313,404.219L-117.313,404.219c25.795,19.348,69.325,67.311,56.025,81.016c-14.913,13.3-34.663,20.959-56.025,20.959
	c-21.363,0-41.112-8.061-56.026-20.959C-186.641,471.933-143.11,423.968-117.313,404.219
	C-117.717,404.219-117.313,404.219-117.313,404.219 M-72.976,348.192c-12.898-7.658-27.005-12.495-44.337-12.495
	c-17.333,0-31.439,4.837-44.338,12.495c0,0-0.403,0.402,0,0.402h0.403c16.525-3.627,41.516,10.884,43.935,12.093l0,0l0,0
	c2.418-1.612,27.408-15.72,43.934-12.093h0.403C-72.574,348.595-72.976,348.595-72.976,348.192 M-176.967,360.284
	C-176.967,360.284-177.37,360.688-176.967,360.284c-16.124,15.72-25.394,37.082-25.394,60.863c0,19.346,6.449,37.485,17.331,51.592
	c0,0,0.403,0.403,0.403,0v-0.403c-6.449-20.152,26.602-68.925,43.935-89.077c0,0,0,0,0-0.403v-0.403
	C-166.89,357.06-175.758,359.479-176.967,360.284 M-93.935,382.855L-93.935,382.855c0,0.403,0,0.403,0,0.403
	c17.33,20.557,50.382,69.328,43.933,89.077v0.403h0.403c10.883-14.51,17.332-32.246,17.332-51.592
	c0-23.781-9.673-45.144-25.394-60.46l-0.403-0.403C-59.272,359.479-67.737,357.06-93.935,382.855 M172.892,371.167h-17.734
	l-39.903,102.379h16.122l10.076-26.604h45.145l10.076,26.604h16.122L172.892,371.167z M146.29,433.643l17.733-46.757l17.736,46.757
	H146.29z M106.789,419.535v18.943v35.067l0,0H91.876v-13.302c-3.627,5.239-8.465,9.27-14.107,11.688
	c-5.642,2.822-12.091,4.03-19.348,4.03c-7.254,0-14.106-1.208-19.749-3.627c-6.046-2.419-10.883-6.046-15.316-11.285
	c-4.435-4.837-7.658-10.479-10.077-16.929c-2.418-6.449-3.224-13.705-3.224-21.766c0-8.062,1.209-15.316,3.224-21.766
	c2.419-6.449,5.643-12.093,10.077-16.929c4.434-4.837,9.673-8.464,15.72-10.883c6.046-2.419,12.896-3.627,20.153-3.627
	c12.494,0,22.975,3.224,31.035,9.673c8.062,6.449,12.898,15.316,14.511,26.2l0,0H88.653l0,0
	c-1.614-6.853-4.838-12.094-10.076-16.124c-5.241-4.03-12.094-6.046-19.348-6.046c-10.077,0-18.138,3.627-24.186,10.883
	c-6.046,6.853-9.27,16.93-9.27,29.021c0,12.091,3.224,21.765,9.27,29.021c6.048,7.256,14.512,10.883,24.589,10.883
	c8.866,0,16.525-2.822,22.571-8.465c6.046-5.24,9.27-12.495,9.673-20.556H61.647v-13.302h45.143V419.535z M357.495,385.274v29.827
	h50.786v12.896h-50.786v31.439h57.638v14.108h-73.356V371.167h73.356v14.107H357.495z M326.459,371.167v102.379h-14.914v-81.018
	c-2.015,5.645-4.432,12.898-7.657,20.96l-23.78,60.058h-12.898l0,0l-23.378-60.058c-2.822-7.255-5.239-14.511-7.657-20.958v81.016
	H221.26V371.167h21.362l20.96,54.414c4.03,10.882,7.657,20.557,10.479,28.617c3.225-9.271,6.449-19.348,10.479-29.827l20.154-53.204
	H326.459z M523.96,380.034c-6.046-5.644-14.913-8.867-25.797-8.867h-43.53v102.379h15.721v-37.889h27.81
	c11.287,0,19.751-2.821,25.797-8.867c6.046-5.643,9.27-13.704,9.27-23.379C532.828,393.738,530.006,385.678,523.96,380.034
	 M469.95,384.871h27.812c6.447,0,11.285,1.611,14.511,4.837c3.224,3.224,4.835,7.658,4.835,13.703c0,6.046-1.611,10.48-4.835,13.706
	c-3.226,3.224-8.063,4.835-14.511,4.835H469.95V384.871z M706.145,445.331c0,9.673-3.627,16.929-10.479,22.571
	c-6.852,5.644-16.928,8.061-29.424,8.061c-13.301,0-24.184-3.224-31.438-9.27c-7.66-6.046-11.287-15.316-11.287-27.005l0,0h15.719
	l0,0c0,7.657,2.419,13.3,7.256,16.929c4.435,3.627,11.688,5.643,20.557,5.643c7.657,0,13.302-1.612,17.332-4.435
	c4.03-2.821,6.046-7.254,6.046-12.494c0-4.435-1.612-8.062-4.837-10.48c-3.225-2.418-9.27-4.434-18.138-6.449l-8.868-2.015
	c-10.479-2.016-18.541-5.643-23.779-10.48c-5.241-4.835-8.062-11.688-8.062-19.749c0-8.465,3.224-15.317,9.673-20.153
	c6.449-4.837,15.317-7.658,26.603-7.658c13.302,0,23.378,2.821,30.229,8.464c6.853,5.643,10.078,13.703,10.481,23.781l0,0H688.41
	l0,0c-0.403-6.449-2.821-11.286-6.449-14.51c-3.627-3.226-10.076-4.434-18.54-4.434c-6.449,0-11.688,1.208-15.317,3.627
	c-3.627,2.418-5.239,6.046-5.239,10.479s1.612,8.062,4.836,10.479c3.226,2.419,8.868,4.838,17.332,6.449l8.868,2.016
	c11.688,2.419,20.152,6.046,25.394,10.883C703.728,430.82,706.145,437.27,706.145,445.331 M797.64,445.331
	c0,9.673-3.627,16.929-10.479,22.571c-6.851,5.644-16.929,8.061-29.422,8.061c-13.302,0-24.185-3.224-31.439-9.27
	c-7.659-6.046-11.286-15.316-11.286-27.005l0,0h15.719l0,0c0,7.657,2.418,13.3,7.256,16.929c4.434,3.627,11.688,5.643,20.556,5.643
	c7.658,0,13.302-1.612,17.333-4.435c4.03-2.821,6.045-7.254,6.045-12.494c0-4.435-1.611-8.062-4.837-10.48
	c-3.224-2.418-9.27-4.434-18.138-6.449l-8.867-2.015c-10.48-2.016-18.541-5.643-23.78-10.48c-5.24-4.835-8.063-11.688-8.063-19.749
	c0-8.465,3.226-15.317,9.675-20.153c6.449-4.837,15.315-7.658,26.602-7.658c13.302,0,23.378,2.821,30.23,8.464
	c6.852,5.643,10.076,13.703,10.479,23.781l0,0H779.1l0,0c-0.403-6.449-2.82-11.286-6.449-14.51
	c-3.628-3.226-10.076-4.434-18.541-4.434c-6.449,0-11.688,1.208-15.315,3.627c-3.629,2.418-5.24,6.046-5.24,10.479
	s1.611,8.062,4.837,10.479c3.224,2.419,8.866,4.838,17.331,6.449l8.867,2.016c11.688,2.419,20.153,6.046,25.394,10.883
	C794.82,430.82,797.64,437.27,797.64,445.331 M579.987,371.167h-17.734l-40.307,102.379h16.122l10.076-26.604h45.546l10.078,26.604
	h16.122L579.987,371.167z M553.384,433.643l17.734-46.757l17.735,46.757H553.384z"/>
</svg>
