<?xml version="1.0" encoding="UTF-8" standalone="no"?>
<svg
   xmlns:dc="http://purl.org/dc/elements/1.1/"
   xmlns:cc="http://creativecommons.org/ns#"
   xmlns:rdf="http://www.w3.org/1999/02/22-rdf-syntax-ns#"
   xmlns:svg="http://www.w3.org/2000/svg"
   xmlns="http://www.w3.org/2000/svg"
   xmlns:sodipodi="http://sodipodi.sourceforge.net/DTD/sodipodi-0.dtd"
   xmlns:inkscape="http://www.inkscape.org/namespaces/inkscape"
   version="1.1"
   id="Layer_1"
   x="0px"
   y="0px"
   width="1000"
   height="291.97964"
   viewBox="0 0 1000 291.97965"
   xml:space="preserve"
   sodipodi:docname="Xbox_2019_Green horizontal.svg"
   inkscape:version="1.0.2 (e86c870879, 2021-01-15)"><metadata
   id="metadata13"><rdf:RDF><cc:Work
       rdf:about=""><dc:format>image/svg+xml</dc:format><dc:type
         rdf:resource="http://purl.org/dc/dcmitype/StillImage" /><dc:title></dc:title></cc:Work></rdf:RDF></metadata><defs
   id="defs11">
	
	
</defs><sodipodi:namedview
   pagecolor="#ffffff"
   bordercolor="#666666"
   borderopacity="1"
   objecttolerance="10"
   gridtolerance="10"
   guidetolerance="10"
   inkscape:pageopacity="0"
   inkscape:pageshadow="2"
   inkscape:window-width="1366"
   inkscape:window-height="705"
   id="namedview9"
   showgrid="false"
   inkscape:zoom="0.5"
   inkscape:cx="659.84761"
   inkscape:cy="120.31789"
   inkscape:window-x="-8"
   inkscape:window-y="-8"
   inkscape:window-maximized="1"
   inkscape:current-layer="Layer_1" />
<g
   id="g864"
   transform="scale(1.1580855)"><path
     d="m 440.74198,204.41411 h -25.92795 l -44.58344,-61.65793 -44.89962,61.65793 h -25.92795 l 57.5474,-79.36482 -52.80449,-73.04094 h 25.92796 l 40.1567,55.33404 40.15672,-55.33404 h 25.92795 l -53.12069,73.04094 z m 134.69887,-43.31865 c 0,13.28017 -4.42672,24.03079 -13.28017,31.61945 -8.85344,7.58867 -21.50123,11.6992 -37.94334,11.6992 h -71.14378 v -67.98182 h -34.14901 l 14.22876,-19.60406 h 19.92025 V 52.00835 h 68.29802 c 15.49353,0 27.19273,3.79434 35.41379,11.0668 8.22106,7.27248 12.33159,17.07451 12.33159,28.77371 0,14.54494 -6.64009,25.92795 -19.92025,33.20043 8.53725,3.16194 14.86114,8.22105 19.28786,14.22875 4.74292,6.00769 6.95628,13.59636 6.95628,21.81742 z m -99.28509,-43.95104 h 43.63486 c 8.85344,0 15.49352,-1.89716 19.92025,-6.00769 4.42672,-3.79434 6.64008,-9.80203 6.64008,-17.7069 0,-6.64009 -2.21336,-12.01539 -6.95627,-15.80972 -4.42673,-3.79434 -11.06681,-5.6915 -19.60406,-5.6915 h -43.63486 z m 75.8867,43.31865 c 0,-7.90486 -2.52956,-14.22875 -7.27248,-18.02308 -4.74292,-4.11053 -12.01539,-6.0077 -21.50123,-6.0077 h -47.11299 v 47.74537 h 46.7968 c 9.16964,0 16.44212,-2.21336 21.50122,-6.00769 5.05912,-4.11053 7.58868,-10.11823 7.58868,-17.7069 z m 180.23087,-32.25184 c 0,11.69919 -1.58096,22.76601 -5.05911,32.25184 -3.47813,9.48584 -8.53724,18.02309 -15.17733,25.29557 -6.95628,7.27248 -14.86114,12.96397 -23.71459,16.44211 -8.85345,3.79434 -18.97167,5.37531 -30.35468,5.37531 -11.06681,0 -21.50122,-1.89717 -30.35467,-5.37531 -8.85345,-3.79433 -16.75831,-9.16963 -23.7146,-16.44211 -6.95627,-7.27248 -12.01539,-15.80973 -15.49352,-25.29557 -3.47814,-9.48583 -5.05912,-20.55265 -5.05912,-32.25184 0,-11.69919 1.58098,-22.766 5.05912,-32.25184 3.47813,-9.48584 8.53725,-18.33928 15.49352,-25.61176 6.6401,-7.27248 14.54496,-12.64779 23.7146,-16.44211 8.85345,-3.47814 19.28786,-5.37531 30.35467,-5.37531 11.06682,0 21.18504,1.89717 30.35468,5.37531 8.85345,3.47813 17.0745,9.16963 23.71459,16.44211 6.64009,7.27248 12.01539,16.12592 15.17733,25.61176 3.16195,9.48584 5.05911,20.23645 5.05911,32.25184 z m -124.89683,0 c 0,18.02309 4.74292,32.25184 13.91256,42.68626 9.16964,10.43443 21.18503,15.80973 36.67856,15.80973 15.17734,0 27.50893,-5.3753 36.67857,-15.80973 9.16964,-10.43442 13.59637,-24.66317 13.59637,-42.68626 0,-18.02309 -4.42673,-32.56803 -13.59637,-43.00245 -9.16964,-10.43443 -21.50123,-15.80974 -36.67857,-15.80974 -15.17734,0 -27.50892,5.37531 -36.67856,15.80974 -9.16964,10.75061 -13.91256,24.97936 -13.91256,43.00245 z m 198.25395,-3.16194 53.12075,-73.04094 h -25.92802 l -40.1567,55.33404 -40.15671,-55.33404 h -25.92793 l 53.12066,73.04094 -57.54738,79.36482 h 25.92793 l 44.58343,-61.65793 44.89963,61.65793 h 25.92799 z"
     id="path2"
     style="fill:#0f7c0f;fill-opacity:1;stroke-width:0.790486" /><path
     d="m 125.90435,101.10026 c 0,0 0.31398,0 0,0 37.9911,28.88578 102.35616,99.84435 82.88965,119.93882 -22.29228,19.4665 -51.17807,31.08361 -82.88965,31.08361 -31.71156,0 -60.91133,-11.61711 -82.88965,-31.08361 -19.78049,-20.09447 44.89856,-91.05304 82.57569,-119.62485 0,-0.31397 0.31396,-0.31397 0.31396,-0.31397 z M 191.52532,18.52458 C 172.3728,6.90747 151.33641,0 125.90435,0 100.47231,0 79.43592,6.90747 60.28338,18.52458 c -0.31398,0 -0.31398,0.31398 -0.31398,0.62796 0,0.31397 0.31398,0.31397 0.62796,0.31397 24.49012,-5.33759 61.53928,15.6988 64.99303,17.89663 h 0.31396 0.31398 c 3.45373,-2.19783 40.50289,-23.23422 64.99303,-17.89663 0.31396,0 0.62795,0 0.62795,-0.31397 0,-0.31398 0,-0.62796 -0.31399,-0.62796 z M 37.67711,36.10724 c -0.31398,0 -0.31398,0.31397 -0.62794,0.31397 C 14.12892,59.34146 0,91.05303 0,125.90436 c 0,28.57182 9.73325,55.25977 25.74603,76.29615 0,0.31398 0.31397,0.31398 0.62794,0.31398 0.31399,0 0.31399,-0.31398 0,-0.62795 C 16.64072,172.05882 65.93495,100.15833 91.367,70.01664 l 0.31397,-0.31397 c 0,-0.31399 0,-0.31399 -0.31397,-0.31399 C 52.74796,31.08361 39.87494,35.16531 37.67711,36.10724 Z m 122.7646,32.96747 -0.31398,0.31397 c 0,0 0,0.31399 0.31398,0.31399 25.43205,30.14168 74.4123,102.04218 64.99303,131.8699 v 0.62794 c 0.31397,0 0.62794,0 0.62794,-0.31397 16.01278,-21.03639 25.74603,-47.72435 25.74603,-76.29615 0,-34.85134 -14.12892,-66.56291 -37.36314,-89.48315 -0.31396,-0.31399 -0.31396,-0.31399 -0.62795,-0.31399 -1.88385,-0.62794 -14.75687,-4.70964 -53.37591,33.28146 z"
     id="path4"
     style="fill:#0f7c0f;fill-opacity:1;stroke-width:0.78494" /></g>
</svg>
